<svg width="216" height="225" viewBox="0 0 216 225" fill="none" xmlns="http://www.w3.org/2000/svg">
<g opacity="0.8" clip-path="url(#clip0_2234_9590)">
<path d="M34.2958 163.57C35.4631 164.467 35.6636 166.019 34.7635 167.19C33.8635 168.361 32.3131 168.566 31.1458 167.669C29.9785 166.772 29.778 165.221 30.6781 164.05C31.5781 162.879 33.2258 162.748 34.2958 163.57Z" fill="#FFCF2D"/>
<path d="M47.7211 146.1C48.8884 146.997 49.0889 148.548 48.1888 149.719C47.2888 150.89 45.7383 151.096 44.5711 150.199C43.4038 149.302 43.2033 147.751 44.1033 146.579C44.9284 145.506 46.6511 145.277 47.7211 146.1Z" fill="#FFCF2D"/>
<path d="M61.0712 128.728C62.2385 129.625 62.439 131.176 61.5389 132.347C60.6389 133.518 59.0884 133.724 57.9212 132.827C56.7539 131.93 56.5534 130.378 57.4534 129.207C58.3535 128.036 60.0012 127.905 61.0712 128.728Z" fill="#FFCF2D"/>
<path d="M74.4965 111.258C75.6638 112.155 75.8642 113.706 74.9642 114.877C74.0642 116.048 72.5137 116.254 71.3465 115.357C70.1792 114.46 69.9787 112.909 70.8787 111.738C71.7788 110.566 73.4265 110.436 74.4965 111.258Z" fill="#FFCF2D"/>
<path d="M87.9218 93.7881C89.0891 94.6852 89.2895 96.2363 88.3895 97.4075C87.4895 98.5786 85.939 98.7842 84.7717 97.8872C83.6045 96.9902 83.404 95.439 84.304 94.2679C85.129 93.1943 86.8518 92.9658 87.9218 93.7881Z" fill="#FFCF2D"/>
<path d="M101.347 76.3184C102.514 77.2154 102.715 78.7666 101.815 79.9377C100.915 81.1089 99.3643 81.3145 98.197 80.4175C97.0298 79.5204 96.8293 77.9693 97.7293 76.7981C98.6293 75.627 100.277 75.4961 101.347 76.3184Z" fill="#FFCF2D"/>
<path d="M114.697 58.9463C115.864 59.8434 116.065 61.3945 115.165 62.5657C114.265 63.7368 112.714 63.9424 111.547 63.0454C110.38 62.1484 110.179 60.5972 111.079 59.426C111.979 58.2549 113.627 58.124 114.697 58.9463Z" fill="#FFCF2D"/>
<path d="M128.122 41.4766C129.29 42.3736 129.49 43.9248 128.59 45.096C127.69 46.2671 126.14 46.4727 124.972 45.5757C123.805 44.6786 123.605 43.1275 124.505 41.9563C125.405 40.7852 127.052 40.6543 128.122 41.4766Z" fill="#FFCF2D"/>
<path d="M141.548 24.0069C142.715 24.9039 142.916 26.4551 142.015 27.6262C141.115 28.7974 139.565 29.003 138.398 28.1059C137.23 27.2089 137.03 25.6578 137.93 24.4866C138.755 23.413 140.478 23.1846 141.548 24.0069Z" fill="#FFCF2D"/>
<path d="M48.7895 174.708C49.9568 175.605 50.1572 177.156 49.2572 178.327C48.3572 179.499 46.8067 179.704 45.6394 178.807C44.4721 177.91 44.2717 176.359 45.1717 175.188C46.0717 174.017 47.6222 173.811 48.7895 174.708Z" fill="#FFCF2D"/>
<path d="M62.2148 157.238C63.3821 158.135 63.5825 159.687 62.6825 160.858C61.7825 162.029 60.232 162.234 59.0647 161.337C57.8974 160.44 57.697 158.889 58.597 157.718C59.422 156.644 61.0475 156.341 62.2148 157.238Z" fill="#FFCF2D"/>
<path d="M75.5649 139.866C76.7322 140.763 76.9326 142.314 76.0326 143.486C75.1326 144.657 73.5821 144.862 72.4148 143.965C71.2475 143.068 71.0471 141.517 71.9471 140.346C72.8471 139.175 74.3976 138.969 75.5649 139.866Z" fill="#FFCF2D"/>
<path d="M88.9902 122.397C90.1575 123.294 90.3579 124.845 89.4579 126.016C88.5579 127.187 87.0074 127.393 85.8401 126.496C84.6728 125.599 84.4724 124.047 85.3724 122.876C86.2724 121.705 87.8229 121.499 88.9902 122.397Z" fill="#FFCF2D"/>
<path d="M102.415 104.926C103.583 105.823 103.783 107.374 102.883 108.545C101.983 109.716 100.433 109.922 99.2654 109.025C98.0981 108.128 97.8977 106.577 98.7977 105.406C99.6227 104.332 101.248 104.029 102.415 104.926Z" fill="#FFCF2D"/>
<path d="M115.841 87.4561C117.008 88.3531 117.208 89.9043 116.308 91.0754C115.408 92.2466 113.858 92.4522 112.691 91.5552C111.523 90.6581 111.323 89.107 112.223 87.9358C113.123 86.7647 114.673 86.5591 115.841 87.4561Z" fill="#FFCF2D"/>
<path d="M129.191 70.084C130.358 70.9811 130.559 72.5322 129.659 73.7034C128.759 74.8745 127.208 75.0801 126.041 74.1831C124.874 73.2861 124.673 71.7349 125.573 70.5637C126.473 69.3926 128.024 69.187 129.191 70.084Z" fill="#FFCF2D"/>
<path d="M142.616 52.6143C143.783 53.5113 143.984 55.0625 143.084 56.2337C142.184 57.4048 140.633 57.6104 139.466 56.7134C138.299 55.8163 138.098 54.2652 138.998 53.094C139.898 51.9229 141.449 51.7173 142.616 52.6143Z" fill="#FFCF2D"/>
<path d="M156.041 35.1446C157.209 36.0416 157.409 37.5928 156.509 38.7639C155.609 39.9351 154.059 40.1407 152.891 39.2436C151.724 38.3466 151.524 36.7955 152.424 35.6243C153.249 34.5507 154.874 34.2475 156.041 35.1446Z" fill="#FFCF2D"/>
<path d="M5.40569 141.368C6.57297 142.265 6.77342 143.816 5.87341 144.988C4.97339 146.159 3.42292 146.364 2.25564 145.467C1.08835 144.57 0.887903 143.019 1.78792 141.848C2.68793 140.677 4.23841 140.471 5.40569 141.368Z" fill="#FFCF2D"/>
<path d="M18.831 123.898C19.9983 124.796 20.1987 126.347 19.2987 127.518C18.3987 128.689 16.8482 128.895 15.6809 127.998C14.5136 127.101 14.3132 125.549 15.2132 124.378C16.0382 123.305 17.6637 123.001 18.831 123.898Z" fill="#FFCF2D"/>
<path d="M32.1811 106.526C33.3484 107.423 33.5488 108.975 32.6488 110.146C31.7488 111.317 30.1983 111.523 29.031 110.625C27.8637 109.728 27.7383 108.08 28.5633 107.006C29.4633 105.835 31.0138 105.629 32.1811 106.526Z" fill="#FFCF2D"/>
<path d="M45.6064 89.0567C46.7737 89.9537 46.9741 91.5049 46.0741 92.676C45.1741 93.8472 43.6236 94.0528 42.4563 93.1557C41.289 92.2587 41.1636 90.61 41.9886 89.5364C42.8136 88.4628 44.4391 88.1597 45.6064 89.0567Z" fill="#FFCF2D"/>
<path d="M59.0317 71.587C60.199 72.484 60.3994 74.0351 59.4994 75.2063C58.5994 76.3775 57.0489 76.5831 55.8816 75.686C54.7143 74.789 54.5139 73.2378 55.4139 72.0667C56.2389 70.9931 57.8644 70.6899 59.0317 71.587Z" fill="#FFCF2D"/>
<path d="M72.457 54.1163C73.6242 55.0133 73.8247 56.5644 72.9247 57.7356C72.0247 58.9068 70.4742 59.1124 69.3069 58.2153C68.1396 57.3183 67.9392 55.7671 68.8392 54.596C69.7392 53.4248 71.2897 53.2192 72.457 54.1163Z" fill="#FFCF2D"/>
<path d="M85.8071 36.7442C86.9743 37.6412 87.1748 39.1924 86.2748 40.3635C85.3748 41.5347 83.8243 41.7403 82.657 40.8432C81.4897 39.9462 81.2893 38.3951 82.1893 37.2239C83.0893 36.0527 84.6398 35.8472 85.8071 36.7442Z" fill="#FFCF2D"/>
<path d="M99.2324 19.2745C100.4 20.1715 100.6 21.7226 99.7001 22.8938C98.8001 24.065 97.2496 24.2706 96.0823 23.3735C94.915 22.4765 94.7146 20.9253 95.6146 19.7542C96.5146 18.583 98.0651 18.3774 99.2324 19.2745Z" fill="#FFCF2D"/>
<path d="M112.658 1.80475C113.825 2.70179 114.025 4.25292 113.125 5.42408C112.225 6.59524 110.675 6.80083 109.508 5.9038C108.34 5.00676 108.14 3.45561 109.04 2.28445C109.865 1.21089 111.49 0.907716 112.658 1.80475Z" fill="#FFCF2D"/>
<path d="M19.8993 152.507C21.0666 153.404 21.2671 154.955 20.3671 156.126C19.467 157.297 17.8193 157.428 16.7493 156.606C15.582 155.709 15.3816 154.158 16.2816 152.987C17.1816 151.815 18.7321 151.61 19.8993 152.507Z" fill="#FFCF2D"/>
<path d="M33.3246 135.036C34.4919 135.933 34.6924 137.484 33.7924 138.656C32.8923 139.827 31.3419 140.032 30.1746 139.135C29.0073 138.238 28.8068 136.687 29.7069 135.516C30.5319 134.442 32.1574 134.139 33.3246 135.036Z" fill="#FFCF2D"/>
<path d="M46.6747 117.664C47.842 118.561 48.0425 120.112 47.1425 121.283C46.2424 122.455 44.692 122.66 43.5247 121.763C42.3574 120.866 42.1569 119.315 43.057 118.144C43.957 116.973 45.5075 116.767 46.6747 117.664Z" fill="#FFCF2D"/>
<path d="M60.1 100.194C61.2673 101.091 61.4678 102.643 60.5677 103.814C59.6677 104.985 58.1173 105.19 56.95 104.293C55.7827 103.396 55.5822 101.845 56.4823 100.674C57.3823 99.5029 58.9327 99.2973 60.1 100.194Z" fill="#FFCF2D"/>
<path d="M73.5253 82.7247C74.6926 83.6217 74.8931 85.1728 73.993 86.344C73.093 87.5152 71.5425 87.7208 70.3753 86.8237C69.208 85.9267 69.0075 84.3755 69.9075 83.2044C70.7326 82.1308 72.358 81.8276 73.5253 82.7247Z" fill="#FFCF2D"/>
<path d="M86.9506 65.2549C88.1179 66.152 88.3183 67.7031 87.4183 68.8743C86.5183 70.0454 84.9678 70.251 83.8006 69.354C82.6333 68.457 82.4328 66.9058 83.3328 65.7346C84.2329 64.5635 85.7833 64.3579 86.9506 65.2549Z" fill="#FFCF2D"/>
<path d="M100.301 47.8829C101.468 48.7799 101.668 50.331 100.768 51.5022C99.8684 52.6734 98.3179 52.879 97.1507 51.9819C95.9834 51.0849 95.7829 49.5337 96.6829 48.3626C97.583 47.1914 99.1334 46.9858 100.301 47.8829Z" fill="#FFCF2D"/>
<path d="M113.726 30.4131C114.893 31.3102 115.094 32.8613 114.194 34.0325C113.294 35.2036 111.743 35.4092 110.576 34.5122C109.409 33.6152 109.208 32.064 110.108 30.8929C111.008 29.7217 112.559 29.5161 113.726 30.4131Z" fill="#FFCF2D"/>
<path d="M127.151 12.9434C128.319 13.8404 128.519 15.3916 127.619 16.5627C126.719 17.7339 125.169 17.9395 124.001 17.0425C122.834 16.1454 122.634 14.5943 123.534 13.4231C124.359 12.3496 125.984 12.0464 127.151 12.9434Z" fill="#FFCF2D"/>
<path d="M63.1865 185.772C64.3537 186.669 64.5542 188.22 63.6542 189.391C62.7542 190.562 61.2037 190.768 60.0364 189.871C58.8691 188.974 58.6687 187.422 59.5687 186.251C60.4687 185.08 62.1164 184.949 63.1865 185.772Z" fill="#FFCF2D"/>
<path d="M76.6117 168.302C77.779 169.199 77.9795 170.75 77.0795 171.921C76.1794 173.092 74.629 173.298 73.4617 172.401C72.2944 171.504 72.094 169.953 72.994 168.782C73.819 167.708 75.5417 167.48 76.6117 168.302Z" fill="#FFCF2D"/>
<path d="M89.9618 150.93C91.1291 151.827 91.3296 153.378 90.4296 154.549C89.5295 155.72 87.9791 155.926 86.8118 155.029C85.6445 154.132 85.4441 152.581 86.3441 151.409C87.2441 150.238 88.8918 150.107 89.9618 150.93Z" fill="#FFCF2D"/>
<path d="M103.387 133.46C104.554 134.357 104.755 135.908 103.855 137.079C102.955 138.251 101.404 138.456 100.237 137.559C99.0698 136.662 98.8694 135.111 99.7694 133.94C100.669 132.769 102.317 132.638 103.387 133.46Z" fill="#FFCF2D"/>
<path d="M116.812 115.99C117.98 116.887 118.18 118.438 117.28 119.61C116.38 120.781 114.83 120.986 113.662 120.089C112.495 119.192 112.295 117.641 113.195 116.47C114.02 115.396 115.742 115.168 116.812 115.99Z" fill="#FFCF2D"/>
<path d="M130.238 98.5196C131.405 99.4166 131.605 100.968 130.705 102.139C129.805 103.31 128.255 103.516 127.088 102.619C125.92 101.722 125.72 100.17 126.62 98.9993C127.52 97.8281 129.168 97.6973 130.238 98.5196Z" fill="#FFCF2D"/>
<path d="M143.588 81.1475C144.755 82.0445 144.956 83.5957 144.056 84.7668C143.156 85.938 141.605 86.1436 140.438 85.2466C139.27 84.3495 139.07 82.7984 139.97 81.6272C140.87 80.4561 142.518 80.3252 143.588 81.1475Z" fill="#FFCF2D"/>
<path d="M157.013 63.6778C158.18 64.5748 158.381 66.126 157.481 67.2971C156.581 68.4683 155.03 68.6739 153.863 67.7768C152.696 66.8798 152.495 65.3287 153.395 64.1575C154.295 62.9863 155.943 62.8555 157.013 63.6778Z" fill="#FFCF2D"/>
<path d="M170.438 46.2081C171.606 47.1051 171.806 48.6562 170.906 49.8274C170.006 50.9985 168.456 51.2041 167.288 50.3071C166.121 49.4101 165.921 47.8589 166.821 46.6878C167.646 45.6142 169.368 45.3858 170.438 46.2081Z" fill="#FFCF2D"/>
<path d="M77.6801 196.909C78.8474 197.806 79.0478 199.357 78.1478 200.529C77.2478 201.7 75.6973 201.905 74.53 201.008C73.3628 200.111 73.1623 198.56 74.0623 197.389C74.9623 196.218 76.5128 196.012 77.6801 196.909Z" fill="#FFCF2D"/>
<path d="M91.1054 179.439C92.2727 180.337 92.4731 181.888 91.5731 183.059C90.6731 184.23 89.1226 184.436 87.9553 183.539C86.7881 182.642 86.5876 181.09 87.4876 179.919C88.3126 178.846 89.9381 178.542 91.1054 179.439Z" fill="#FFCF2D"/>
<path d="M104.455 162.067C105.623 162.964 105.823 164.516 104.923 165.687C104.023 166.858 102.473 167.064 101.305 166.166C100.138 165.269 99.9377 163.718 100.838 162.547C101.738 161.376 103.288 161.17 104.455 162.067Z" fill="#FFCF2D"/>
<path d="M118.349 148.217C119.218 147.085 119.009 145.465 117.881 144.598C116.753 143.731 115.133 143.945 114.263 145.077C113.393 146.209 113.603 147.83 114.731 148.697C115.859 149.564 117.479 149.349 118.349 148.217Z" fill="#FFCF2D"/>
<path d="M131.306 127.128C132.473 128.025 132.674 129.576 131.774 130.747C130.874 131.918 129.323 132.124 128.156 131.227C126.989 130.33 126.788 128.779 127.688 127.608C128.513 126.534 130.139 126.231 131.306 127.128Z" fill="#FFCF2D"/>
<path d="M144.731 109.658C145.899 110.555 146.099 112.106 145.199 113.278C144.299 114.449 142.749 114.654 141.581 113.757C140.414 112.86 140.214 111.309 141.114 110.138C142.014 108.967 143.564 108.761 144.731 109.658Z" fill="#FFCF2D"/>
<path d="M158.081 92.2862C159.249 93.1832 159.449 94.7343 158.549 95.9055C157.649 97.0767 156.099 97.2823 154.931 96.3852C153.764 95.4882 153.564 93.9371 154.464 92.7659C155.364 91.5947 156.914 91.3891 158.081 92.2862Z" fill="#FFCF2D"/>
<path d="M171.974 78.4358C172.844 77.3039 172.635 75.6834 171.507 74.8164C170.379 73.9495 168.759 74.1642 167.889 75.2962C167.019 76.4281 167.229 78.0485 168.357 78.9155C169.485 79.7825 171.105 79.5677 171.974 78.4358Z" fill="#FFCF2D"/>
<path d="M184.932 57.3467C186.099 58.2438 186.3 59.7949 185.4 60.9661C184.5 62.1372 182.949 62.3428 181.782 61.4458C180.615 60.5488 180.414 58.9976 181.314 57.8264C182.139 56.7529 183.765 56.4497 184.932 57.3467Z" fill="#FFCF2D"/>
<path d="M92.1738 208.048C93.341 208.945 93.5415 210.496 92.6415 211.667C91.7415 212.838 90.191 213.044 89.0237 212.147C87.8564 211.25 87.656 209.699 88.556 208.528C89.456 207.356 91.0065 207.151 92.1738 208.048Z" fill="#FFCF2D"/>
<path d="M105.599 190.578C106.766 191.475 106.967 193.026 106.067 194.198C105.167 195.369 103.616 195.574 102.449 194.677C101.282 193.78 101.081 192.229 101.981 191.058C102.806 189.984 104.432 189.681 105.599 190.578Z" fill="#FFCF2D"/>
<path d="M118.949 173.206C120.116 174.103 120.317 175.654 119.417 176.825C118.517 177.997 116.966 178.202 115.799 177.305C114.632 176.408 114.431 174.857 115.331 173.686C116.231 172.515 117.782 172.309 118.949 173.206Z" fill="#FFCF2D"/>
<path d="M132.374 155.736C133.542 156.633 133.742 158.185 132.842 159.356C131.942 160.527 130.392 160.732 129.224 159.835C128.057 158.938 127.857 157.387 128.757 156.216C129.657 155.045 131.207 154.839 132.374 155.736Z" fill="#FFCF2D"/>
<path d="M145.8 138.267C146.967 139.164 147.167 140.715 146.267 141.886C145.367 143.057 143.817 143.263 142.65 142.366C141.482 141.469 141.282 139.918 142.182 138.746C143.007 137.673 144.632 137.37 145.8 138.267Z" fill="#FFCF2D"/>
<path d="M159.225 120.796C160.392 121.693 160.593 123.244 159.693 124.415C158.793 125.586 157.242 125.792 156.075 124.895C154.908 123.998 154.707 122.447 155.607 121.276C156.507 120.105 158.058 119.899 159.225 120.796Z" fill="#FFCF2D"/>
<path d="M172.575 103.424C173.742 104.321 173.943 105.872 173.043 107.043C172.143 108.214 170.592 108.42 169.425 107.523C168.258 106.626 168.057 105.075 168.957 103.904C169.857 102.732 171.408 102.527 172.575 103.424Z" fill="#FFCF2D"/>
<path d="M186 85.9541C187.168 86.8512 187.368 88.4023 186.468 89.5735C185.568 90.7447 184.018 90.9503 182.85 90.0532C181.683 89.1562 181.483 87.605 182.383 86.4339C183.283 85.2627 184.833 85.0571 186 85.9541Z" fill="#FFCF2D"/>
<path d="M199.426 68.4844C200.593 69.3815 200.793 70.9326 199.893 72.1038C198.993 73.2749 197.443 73.4805 196.276 72.5835C195.108 71.6865 194.908 70.1353 195.808 68.9641C196.633 67.8906 198.258 67.5874 199.426 68.4844Z" fill="#FFCF2D"/>
<path d="M106.57 219.111C107.738 220.008 107.938 221.56 107.038 222.731C106.138 223.902 104.587 224.107 103.42 223.21C102.253 222.313 102.052 220.762 102.952 219.591C103.852 218.42 105.5 218.289 106.57 219.111Z" fill="#FFCF2D"/>
<path d="M119.996 201.642C121.163 202.539 121.363 204.09 120.463 205.261C119.563 206.432 118.013 206.638 116.845 205.741C115.678 204.844 115.478 203.293 116.378 202.121C117.203 201.048 118.926 200.819 119.996 201.642Z" fill="#FFCF2D"/>
<path d="M133.346 184.27C134.513 185.167 134.713 186.718 133.813 187.889C132.913 189.06 131.363 189.266 130.196 188.369C129.028 187.472 128.828 185.92 129.728 184.749C130.628 183.578 132.276 183.447 133.346 184.27Z" fill="#FFCF2D"/>
<path d="M146.771 166.8C147.938 167.697 148.139 169.248 147.239 170.419C146.339 171.59 144.788 171.796 143.621 170.899C142.454 170.002 142.253 168.451 143.153 167.28C144.053 166.108 145.701 165.978 146.771 166.8Z" fill="#FFCF2D"/>
<path d="M160.196 149.329C161.363 150.226 161.564 151.777 160.664 152.948C159.764 154.12 158.213 154.325 157.046 153.428C155.879 152.531 155.678 150.98 156.578 149.809C157.403 148.735 159.126 148.507 160.196 149.329Z" fill="#FFCF2D"/>
<path d="M173.622 131.859C174.789 132.756 174.989 134.308 174.089 135.479C173.189 136.65 171.639 136.856 170.471 135.958C169.304 135.061 169.104 133.51 170.004 132.339C170.904 131.168 172.551 131.037 173.622 131.859Z" fill="#FFCF2D"/>
<path d="M186.972 114.487C188.139 115.384 188.339 116.936 187.439 118.107C186.539 119.278 184.989 119.483 183.822 118.586C182.654 117.689 182.454 116.138 183.354 114.967C184.254 113.796 185.902 113.665 186.972 114.487Z" fill="#FFCF2D"/>
<path d="M200.397 97.0176C201.564 97.9147 201.765 99.4658 200.865 100.637C199.965 101.808 198.414 102.014 197.247 101.117C196.08 100.22 195.879 98.6685 196.779 97.4973C197.679 96.3262 199.327 96.1953 200.397 97.0176Z" fill="#FFCF2D"/>
<path d="M213.822 79.5479C214.989 80.4449 215.19 81.9961 214.29 83.1672C213.39 84.3384 211.839 84.544 210.672 83.647C209.505 82.7499 209.304 81.1988 210.204 80.0276C211.029 78.954 212.752 78.7256 213.822 79.5479Z" fill="#FFCF2D"/>
</g>
<defs>
<clipPath id="clip0_2234_9590">
<rect width="181.184" height="132.739" fill="white" transform="translate(0.212891 143.897) rotate(-52.4584)"/>
</clipPath>
</defs>
</svg>
